<svg xmlns="http://www.w3.org/2000/svg" width="1600" height="900" viewBox="0 0 1600 900" role="img" aria-labelledby="title desc">
  <title id="title">Weekly semiconductor stock picks table</title>
  <desc id="desc">A dark weekly stock watchlist table ranking NVDA, AVGO, AMD, QCOM, MRVL, TER, AMAT, LRCX, AEIS, and ALAB.</desc>
  <rect width="1600" height="900" fill="#050505"/>
  <rect x="60" y="64" width="1480" height="772" rx="16" fill="#000000" stroke="#252525"/>
  <text x="100" y="128" fill="#ffffff" font-family="Manrope, Arial, sans-serif" font-size="46" font-weight="900">Best Stocks to Buy Now This Week</text>
  <text x="100" y="170" fill="#9ca3af" font-family="Manrope, Arial, sans-serif" font-size="22">Long-only semiconductor watchlist with buy zones, targets, invalidation levels, and management-quality context.</text>
  <g font-family="Manrope, Arial, sans-serif" font-weight="800" font-size="18" fill="#f4f4f4">
    <text x="100" y="246">Rank</text><text x="190" y="246">Ticker</text><text x="360" y="246">Score</text><text x="500" y="246">Expected Move</text><text x="720" y="246">Buy Zone</text><text x="1040" y="246">Targets</text><text x="1250" y="246">R/R</text><text x="1360" y="246">Grade</text>
  </g>
  <g font-family="Manrope, Arial, sans-serif" font-size="20" font-weight="800">
    <g transform="translate(0 0)"><line x1="92" y1="278" x2="1508" y2="278" stroke="#1f1f1f"/><text x="118" y="322" fill="#ffffff">1</text><text x="190" y="322" fill="#ffffff">NVDA</text><text x="372" y="322" fill="#ffffff">91</text><text x="510" y="322" fill="#ffffff">5%-8%</text><text x="720" y="322" fill="#d1d5db">$206-$211 retest</text><text x="1040" y="322" fill="#d1d5db">216 / 222 / 230</text><text x="1250" y="322" fill="#ffffff">2.7:1</text><text x="1370" y="322" fill="#74d6a3">A+</text></g>
    <g transform="translate(0 62)"><line x1="92" y1="278" x2="1508" y2="278" stroke="#1f1f1f"/><text x="118" y="322" fill="#ffffff">2</text><text x="190" y="322" fill="#ffffff">AVGO</text><text x="372" y="322" fill="#ffffff">89</text><text x="510" y="322" fill="#ffffff">6%-9%</text><text x="720" y="322" fill="#d1d5db">$401-$412 retest</text><text x="1040" y="322" fill="#d1d5db">426 / 440 / 455</text><text x="1250" y="322" fill="#ffffff">2.5:1</text><text x="1370" y="322" fill="#74d6a3">A</text></g>
    <g transform="translate(0 124)"><line x1="92" y1="278" x2="1508" y2="278" stroke="#1f1f1f"/><text x="118" y="322" fill="#ffffff">3</text><text x="190" y="322" fill="#ffffff">AMD</text><text x="372" y="322" fill="#ffffff">88</text><text x="510" y="322" fill="#ffffff">6%-10%</text><text x="720" y="322" fill="#d1d5db">$525-$538 pullback</text><text x="1040" y="322" fill="#d1d5db">555 / 570 / 590</text><text x="1250" y="322" fill="#ffffff">2.6:1</text><text x="1370" y="322" fill="#74d6a3">A</text></g>
    <g transform="translate(0 186)"><line x1="92" y1="278" x2="1508" y2="278" stroke="#1f1f1f"/><text x="118" y="322" fill="#ffffff">4</text><text x="190" y="322" fill="#ffffff">QCOM</text><text x="372" y="322" fill="#ffffff">86</text><text x="510" y="322" fill="#ffffff">5%-8%</text><text x="720" y="322" fill="#d1d5db">$218-$226 retest</text><text x="1040" y="322" fill="#d1d5db">235 / 242 / 250</text><text x="1250" y="322" fill="#ffffff">2.4:1</text><text x="1370" y="322" fill="#74d6a3">A</text></g>
    <g transform="translate(0 248)"><line x1="92" y1="278" x2="1508" y2="278" stroke="#1f1f1f"/><text x="118" y="322" fill="#ffffff">5</text><text x="190" y="322" fill="#ffffff">MRVL</text><text x="372" y="322" fill="#ffffff">86</text><text x="510" y="322" fill="#ffffff">7%-11%</text><text x="720" y="322" fill="#d1d5db">$300-$312 after volatility cools</text><text x="1040" y="322" fill="#d1d5db">325 / 340 / 355</text><text x="1250" y="322" fill="#ffffff">2.3:1</text><text x="1370" y="322" fill="#74d6a3">A</text></g>
    <g transform="translate(0 310)"><line x1="92" y1="278" x2="1508" y2="278" stroke="#1f1f1f"/><text x="118" y="322" fill="#ffffff">6</text><text x="190" y="322" fill="#ffffff">TER</text><text x="372" y="322" fill="#ffffff">85</text><text x="510" y="322" fill="#ffffff">5%-9%</text><text x="720" y="322" fill="#d1d5db">$421-$438 consolidation</text><text x="1040" y="322" fill="#d1d5db">452 / 465 / 480</text><text x="1250" y="322" fill="#ffffff">2.2:1</text><text x="1370" y="322" fill="#74d6a3">A</text></g>
    <g transform="translate(0 372)"><line x1="92" y1="278" x2="1508" y2="278" stroke="#1f1f1f"/><text x="118" y="322" fill="#ffffff">7-10</text><text x="190" y="322" fill="#ffffff">AMAT / LRCX / AEIS / ALAB</text><text x="510" y="322" fill="#ffffff">4%-12%</text><text x="720" y="322" fill="#d1d5db">Pullbacks and retests only</text><text x="1250" y="322" fill="#ffffff">2.0:1+</text><text x="1370" y="322" fill="#74d6a3">A-</text></g>
  </g>
  <text x="100" y="790" fill="#f2b84b" font-family="Manrope, Arial, sans-serif" font-size="22" font-weight="900">No gap chasing. Use pullbacks, retests, and defined invalidation levels.</text>
</svg>
